<?xml version="1.0" encoding="UTF-8" standalone="no"?>
<svg
   width="100%"
   height="100%"
   viewBox="0 0 244 244"
   version="1.1"
   xml:space="preserve"
   style="fill-rule:evenodd;clip-rule:evenodd;stroke-linejoin:round;stroke-miterlimit:1.41421;"
   id="svg851"
   sodipodi:docname="grin-mw-logo-inverted.svg"
   inkscape:version="1.2.2 (732a01da63, 2022-12-09)"
   xmlns:inkscape="http://www.inkscape.org/namespaces/inkscape"
   xmlns:sodipodi="http://sodipodi.sourceforge.net/DTD/sodipodi-0.dtd"
   xmlns="http://www.w3.org/2000/svg"
   xmlns:svg="http://www.w3.org/2000/svg"
   xmlns:rdf="http://www.w3.org/1999/02/22-rdf-syntax-ns#"
   xmlns:cc="http://creativecommons.org/ns#"
   xmlns:dc="http://purl.org/dc/elements/1.1/"><metadata
   id="metadata857"><rdf:RDF><cc:Work
       rdf:about=""><dc:format>image/svg+xml</dc:format><dc:type
         rdf:resource="http://purl.org/dc/dcmitype/StillImage" /></cc:Work></rdf:RDF></metadata><defs
   id="defs855"><style
     id="style2">.a{fill:#fff;}.b{fill:#fff200;}</style></defs><sodipodi:namedview
   pagecolor="#ffffff"
   bordercolor="#666666"
   borderopacity="1"
   objecttolerance="10"
   gridtolerance="10"
   guidetolerance="10"
   inkscape:pageopacity="0"
   inkscape:pageshadow="2"
   inkscape:window-width="1920"
   inkscape:window-height="991"
   id="namedview853"
   showgrid="false"
   inkscape:zoom="3.6224733"
   inkscape:cx="111.11193"
   inkscape:cy="150.86378"
   inkscape:window-x="-9"
   inkscape:window-y="-9"
   inkscape:window-maximized="1"
   inkscape:current-layer="svg851"
   inkscape:showpageshadow="2"
   inkscape:pagecheckerboard="0"
   inkscape:deskcolor="#d1d1d1" />
    
    
    
<path
   d="m 238.24717,-27.912198 c -143.307917,0 -272.505815,86.327178 -327.344276,218.724058 -54.838354,132.39661 -24.516904,284.78754 76.816661,386.12111 101.333564,101.33356 253.724505,131.65501 386.121115,76.81666 132.39687,-54.83846 218.72405,-184.03636 218.72405,-327.34428 0,-195.68418 -158.63337,-354.317548 -354.31755,-354.317548 z"
   id="path2345"
   style="fill-rule:evenodd;clip-rule:evenodd;stroke-linejoin:round;stroke-miterlimit:1.41421;display:inline;stroke-width:3.54318"
   sodipodi:nodetypes="ssssss"
   transform="matrix(0.26981306,0,0,0.26981306,58.285998,34.499762)" /><path
   style="fill-rule:evenodd;clip-rule:evenodd;stroke-linejoin:round;stroke-miterlimit:1.41421;display:inline;opacity:1;fill:#ffffff"
   d="M 233.62347,614.88287 -9.1204229,474.94189 c 0,0 -2.8952111,-1.80207 -3.7389611,-5.23957 l -0.05454,-281.39236 c 0,0 -0.02636,-4.03246 3.2236382,-5.93871 L 231.22388,42.957031 c 6.03086,-4.08455 11.71783,-0.217314 11.71783,-0.217314 L 307.50901,80.539219 63.026837,221.7838 c 0,0 -4.728777,2.87261 -5.524272,9.45754 l 0.07544,194.34707 c 0,0 6.04e-4,5.56432 4.688104,8.97057 l 170.289581,98.39599 c 0,0 5.80465,2.52749 12.10921,-1.59099 l 242.68598,-140.04712 0.10323,76.81538 c 0,0 -0.0971,4.38468 -3.94079,6.69088 L 241.78426,614.70963 c 0,0 -3.56213,2.3874 -8.16079,0.17324 z"
   id="path674"
   sodipodi:nodetypes="ccccccccccccccccccc"
   inkscape:label="path674"
   transform="matrix(0.26981306,0,0,0.26981306,58.285998,34.499762)" /><path
   style="fill-rule:evenodd;clip-rule:evenodd;stroke-linejoin:round;stroke-miterlimit:1.41421;display:inline;opacity:1;fill:#ffffff"
   d="m 401.71109,189.76981 -61.75,-35.5 c 0,0 -3.02015,-1.57276 -7.25,0.25 L 140.19942,266.02565 c -5.30258,3.4362 -4.61333,9.24416 -4.61333,9.24416 l -0.003,58.83844 c 3.62614,8.165 11.47392,3.92293 11.47392,3.92293 z"
   id="path676"
   sodipodi:nodetypes="cccccccc"
   transform="matrix(0.26981306,0,0,0.26981306,58.285998,34.499762)" /><path
   style="fill-rule:evenodd;clip-rule:evenodd;stroke-linejoin:round;stroke-miterlimit:1.41421;display:inline;opacity:1;fill:#ffffff"
   d="m 348.6096,145.46046 62.57895,36.15083 c 2.6164,1.02912 4.48444,-0.0206 4.48444,-0.0206 l 25.471,-14.83886 c 0,0 6.32733,-5.91555 -0.92497,-11.81112 l -48.67325,-27.98632 c -5.40222,-2.98478 -10.01868,-0.32065 -10.01868,-0.32065 z"
   id="path678"
   sodipodi:nodetypes="cccccccc"
   transform="matrix(0.26981306,0,0,0.26981306,58.285998,34.499762)" /><path
   style="fill-rule:evenodd;clip-rule:evenodd;stroke-linejoin:round;stroke-miterlimit:1.41421;display:inline;opacity:1;fill:#ffffff"
   d="m 451.05169,327.45206 34.64618,-20.576 c 0,0 2.92298,-2.04289 3.09565,-8.59215 l -0.28144,-60.08428 c 0,0 -1.21558,-8.75226 -11.26255,-4.77533 l -22.75069,13.06404 c -3.83582,2.52844 -3.35876,6.09879 -3.35876,6.09879 z"
   id="path680"
   sodipodi:nodetypes="cccccccc"
   transform="matrix(0.26981306,0,0,0.26981306,58.285998,34.499762)" /><path
   style="fill-rule:evenodd;clip-rule:evenodd;stroke-linejoin:round;stroke-miterlimit:1.41421;display:inline;opacity:1;fill:#ffffff"
   d="m 439.83609,255.64481 -0.29069,74.8721 c 0,0 -1.20333,4.24989 -4.65698,6.09882 L 246.25544,445.74016 c -7.49897,3.84815 -12.50997,-0.32401 -12.50997,-0.32401 l -51.15938,-30.02134 c -5.94491,-6.41359 0.47533,-10.50332 0.47533,-10.50332 z"
   id="path682"
   sodipodi:nodetypes="cccccccc"
   transform="matrix(0.26981306,0,0,0.26981306,58.285998,34.499762)" /></svg>
