<?xml version="1.0" encoding="UTF-8" standalone="no"?>
<svg
   width="300"
   height="300"
   viewBox="0 0 300 300"
   version="1.1"
   id="svg4055"
   xml:space="preserve"
   xmlns="http://www.w3.org/2000/svg"
   xmlns:svg="http://www.w3.org/2000/svg"
   xmlns:rdf="http://www.w3.org/1999/02/22-rdf-syntax-ns#"
   xmlns:cc="http://creativecommons.org/ns#"
   xmlns:dc="http://purl.org/dc/elements/1.1/"><defs
     id="defs4041"><style
       id="style4039">.a{fill:#fff;}</style><style
       id="style2">.a{fill:#fff;}.b{fill:#fff200;}</style></defs><title
     id="title4043">black_0</title><path
     style="display:inline;opacity:1;fill:#ffffff"
     d="M 233.62347,614.88287 -9.1204229,474.94189 c 0,0 -2.8952111,-1.80207 -3.7389611,-5.23957 l -0.05454,-281.39236 c 0,0 -0.02636,-4.03246 3.2236382,-5.93871 L 231.22388,42.957031 c 6.03086,-4.08455 11.71783,-0.217314 11.71783,-0.217314 L 307.50901,80.539219 63.026837,221.7838 c 0,0 -4.728777,2.87261 -5.524272,9.45754 l 0.07544,194.34707 c 0,0 6.04e-4,5.56432 4.688104,8.97057 l 170.289581,98.39599 c 0,0 5.80465,2.52749 12.10921,-1.59099 l 242.68598,-140.04712 0.10323,76.81538 c 0,0 -0.0971,4.38468 -3.94079,6.69088 L 241.78426,614.70963 c 0,0 -3.56213,2.3874 -8.16079,0.17324 z"
     id="path3535"
     transform="matrix(0.2822327,0,0,0.2822327,82.765926,57.888843)" /><path
     style="display:inline;opacity:1;fill:#ffffff"
     d="m 401.71109,189.76981 -61.75,-35.5 c 0,0 -3.02015,-1.57276 -7.25,0.25 L 140.19942,266.02565 c -5.30258,3.4362 -4.61333,9.24416 -4.61333,9.24416 l -0.003,58.83844 c 3.62614,8.165 11.47392,3.92293 11.47392,3.92293 z"
     id="path3537"
     transform="matrix(0.2822327,0,0,0.2822327,82.765926,57.888843)" /><path
     style="display:inline;opacity:1;fill:#ffffff"
     d="m 348.6096,145.46046 62.57895,36.15083 c 2.6164,1.02912 4.48444,-0.0206 4.48444,-0.0206 l 25.471,-14.83886 c 0,0 6.32733,-5.91555 -0.92497,-11.81112 l -48.67325,-27.98632 c -5.40222,-2.98478 -10.01868,-0.32065 -10.01868,-0.32065 z"
     id="path3539"
     transform="matrix(0.2822327,0,0,0.2822327,82.765926,57.888843)" /><path
     style="display:inline;opacity:1;fill:#ffffff"
     d="m 451.05169,327.45206 34.64618,-20.576 c 0,0 2.92298,-2.04289 3.09565,-8.59215 l -0.28144,-60.08428 c 0,0 -1.21558,-8.75226 -11.26255,-4.77533 l -22.75069,13.06404 c -3.83582,2.52844 -3.35876,6.09879 -3.35876,6.09879 z"
     id="path3541"
     transform="matrix(0.2822327,0,0,0.2822327,82.765926,57.888843)" /><path
     style="display:inline;opacity:1;fill:#ffffff"
     d="m 439.83609,255.64481 -0.29069,74.8721 c 0,0 -1.20333,4.24989 -4.65698,6.09882 L 246.25544,445.74016 c -7.49897,3.84815 -12.50997,-0.32401 -12.50997,-0.32401 l -51.15938,-30.02134 c -5.94491,-6.41359 0.47533,-10.50332 0.47533,-10.50332 z"
     id="path3543"
     transform="matrix(0.2822327,0,0,0.2822327,82.765926,57.888843)" /><path
     d="M 238.24717,-27.912198 A 354.31755,354.31755 0 1 0 592.56472,326.40535 354.31755,354.31755 0 0 0 238.24717,-27.912198 Z m 0,670.609738 A 316.29219,316.29219 0 1 1 554.53936,326.40535 316.29219,316.29219 0 0 1 238.24717,642.69754 Z"
     id="path3545"
     style="display:none;fill:#ffffff;stroke-width:3.54318"
     transform="matrix(0.2822327,0,0,0.2822327,82.765926,57.888843)" /><path
     style="display:inline;fill:#000000;fill-opacity:1;stroke:#fff200;stroke-width:0.613115;stroke-opacity:1"
     d="m 217.79132,641.79917 c -18.71863,-1.61275 -33.31857,-3.74606 -48.06938,-7.02385 C 96.391217,618.48033 31.161491,576.42836 -14.234064,516.18343 -34.700968,489.02155 -51.331429,457.06137 -62.154768,424.0901 -76.908232,379.14626 -81.268109,329.65466 -74.620155,282.58669 -61.86444,192.27501 -10.813943,111.91919 65.560552,61.935894 107.04484,34.786525 153.32307,18.27313 205.22244,12.100564 c 13.15691,-1.564808 52.28724,-1.580752 65.80984,-0.02834 58.82908,6.760272 111.68196,27.688818 157.67053,62.433941 47.39157,35.805135 83.89627,84.457355 104.84341,139.731815 24.32582,64.19001 27.21078,133.96127 8.25132,199.55374 -21.08828,72.95717 -67.35088,135.53487 -130.87506,177.02974 -42.25463,27.6013 -88.25164,43.95425 -140.40329,49.91653 -7.83212,0.8954 -45.78215,1.65806 -52.72787,1.05966 z m 144.66102,-96.47461 c 66.98781,-38.76953 122.47255,-71.21007 123.29946,-72.09012 l 1.50347,-1.6001 0.16618,-40.47444 0.16617,-40.47443 -2.0055,1.2152 c -4.37271,2.64948 -241.25986,139.208 -243.25186,140.22758 -1.23888,0.63409 -3.47104,1.09098 -5.33,1.09098 -3.0645,0 -4.33561,-0.65658 -30.36353,-15.68429 C 58.203042,431.83378 61.836746,433.96993 59.914254,431.28136 l -1.839369,-2.57224 -0.174678,-98.50548 c -0.134287,-75.69704 -0.0031,-99.13246 0.568042,-101.21315 0.408563,-1.4892 1.490897,-3.55848 2.405178,-4.59837 1.04428,-1.18774 47.271243,-28.21962 124.332863,-72.70546 67.4688,-38.94811 122.67495,-70.952696 122.68033,-71.121316 0.007,-0.168655 -14.97346,-9.065108 -33.28636,-19.769998 -37.17596,-21.731394 -36.42253,-21.397662 -42.18282,-18.685538 -1.80588,0.850256 -57.36015,32.847008 -123.4539,71.103952 -106.3737916,61.57213 -120.293582,69.79737 -121.242515,71.64251 -1.01147,1.96678 -1.072059,10.07545 -1.072944,143.59119 -0.0012,151.29299 -0.159443,143.17618 2.848571,145.81836 0.8496534,0.7463 161.180338,93.36176 237.456538,137.16742 6.64576,3.81667 8.02041,4.38135 10.6661,4.38135 2.91691,0 7.85837,-2.79033 124.83315,-70.49003 z m -118.85437,-98.325 c 2.03385,-0.61814 170.28009,-97.35721 190.1269,-109.32014 6.26171,-3.77433 5.8045,-0.52964 6.2299,-44.20997 0.20444,-20.99151 0.22995,-38.16638 0.057,-38.16638 -1.15004,0 -257.20013,149.40412 -258.5475,150.86136 -1.98411,2.14589 -2.20924,4.92643 -0.60992,7.53265 0.7626,1.2427 8.72748,6.23967 27.74023,17.40355 14.66878,8.61314 27.36026,15.87512 28.20329,16.13771 2.30838,0.71894 3.82397,0.66573 6.80009,-0.23881 z m 30.27927,-182.34988 c 70.13259,-40.83875 127.59372,-74.49211 127.69144,-74.78524 0.0978,-0.29302 -13.90714,-8.6226 -31.12187,-18.50994 l -31.2995,-17.97697 -3.19849,0.30082 c -2.90367,0.27282 -12.09899,5.45546 -99.76406,56.22736 -53.11107,30.75969 -97.30729,56.71578 -98.21381,57.68024 -0.90652,0.96445 -1.93961,2.80286 -2.29577,4.08538 -0.41412,1.4914 -0.6473,13.1601 -0.64691,32.3745 6e-4,28.66705 0.0549,30.12496 1.18586,31.84064 1.73666,2.63445 3.57358,3.4716 7.08373,3.22822 2.80613,-0.19452 13.85651,-6.4962 130.57938,-74.46487 z m 194.93017,52.70959 c 9.94052,-5.95289 17.64955,-10.9735 18.39344,-11.97901 1.26254,-1.70657 1.28065,-2.21126 1.28065,-35.70001 v -33.96899 l -1.59252,-1.59252 c -2.07251,-2.07251 -5.63039,-2.57093 -8.8247,-1.23628 -1.32161,0.5522 -7.48188,3.93629 -13.68956,7.52024 -8.10026,4.67661 -11.61254,7.05064 -12.44094,8.40913 -1.09785,1.80032 -1.15436,3.77366 -1.15656,40.36584 -10e-4,21.16013 0.2048,38.46319 0.45757,38.45128 0.25298,-0.0106 8.16057,-4.63327 17.57262,-10.26968 z M 428.18987,174.75234 c 13.82997,-8.02419 15.84079,-9.74579 15.84079,-13.56239 0,-4.23452 -1.43892,-5.31962 -25.45729,-19.19675 -12.46971,-7.20469 -24.41273,-13.93644 -26.54002,-14.9595 -6.41084,-3.08309 -6.99699,-2.89796 -26.72089,8.43903 -9.31022,5.35137 -16.92373,9.87816 -16.91888,10.05954 0.004,0.18141 1.31541,1.05696 2.91232,1.9457 1.59691,0.88873 15.85394,9.09682 31.68233,18.24016 18.43231,10.64752 29.37944,16.62426 30.44938,16.62426 1.02412,0 6.73214,-2.93676 14.75226,-7.59005 z"
     id="path3547"
     transform="matrix(0.2822327,0,0,0.2822327,82.765926,57.888843)" /><metadata
     id="metadata4475"><rdf:RDF><cc:Work
         rdf:about=""><dc:title>black_0</dc:title></cc:Work></rdf:RDF></metadata></svg>
