<?xml version="1.0" encoding="UTF-8" standalone="no"?>
<svg
   width="300"
   height="300"
   viewBox="0 0 300 300"
   version="1.1"
   id="svg5266"
   sodipodi:docname="black_2.svg"
   xml:space="preserve"
   inkscape:version="1.2.2 (732a01da63, 2022-12-09)"
   xmlns:inkscape="http://www.inkscape.org/namespaces/inkscape"
   xmlns:sodipodi="http://sodipodi.sourceforge.net/DTD/sodipodi-0.dtd"
   xmlns="http://www.w3.org/2000/svg"
   xmlns:svg="http://www.w3.org/2000/svg"
   xmlns:rdf="http://www.w3.org/1999/02/22-rdf-syntax-ns#"
   xmlns:cc="http://creativecommons.org/ns#"
   xmlns:dc="http://purl.org/dc/elements/1.1/"><defs
     id="defs5270"><style
       id="style2">.a{fill:#fff;}.b{fill:#fff200;}</style></defs><sodipodi:namedview
     id="namedview5268"
     pagecolor="#ffffff"
     bordercolor="#000000"
     borderopacity="0.25"
     inkscape:showpageshadow="2"
     inkscape:pageopacity="0.0"
     inkscape:pagecheckerboard="0"
     inkscape:deskcolor="#d1d1d1"
     showgrid="false"
     inkscape:zoom="2.58"
     inkscape:cx="78.100775"
     inkscape:cy="81.20155"
     inkscape:window-width="1920"
     inkscape:window-height="991"
     inkscape:window-x="-9"
     inkscape:window-y="-9"
     inkscape:window-maximized="1"
     inkscape:current-layer="svg5266" /><title
     id="title5262">black_2</title><path
     style="display:inline;fill:#000000;fill-opacity:1;stroke:#fff200;stroke-width:0.346082;stroke-opacity:1"
     d="m 142.30215,249.62501 c -0.57103,-0.0794 -2.51774,-0.31023 -4.32602,-0.51307 -14.93192,-1.67474 -30.11782,-7.31917 -43.260267,-16.07936 -6.42866,-4.28503 -10.916312,-8.01668 -16.275821,-13.53394 -4.898439,-5.04259 -7.803331,-8.63993 -11.700899,-14.49008 -8.484962,-12.73569 -14.012961,-27.90079 -16.021493,-43.95212 -0.646448,-5.16619 -0.538198,-18.0951 0.195602,-23.36055 2.945129,-21.13296 11.21823,-39.101439 25.172131,-54.671709 19.79583,-22.088942 50.347617,-34.571586 79.736707,-32.578346 15.12218,1.025634 27.43661,4.457809 40.64191,11.327381 8.32534,4.330974 15.81961,9.80753 23.11845,16.894224 15.82448,15.364522 25.73066,34.73765 29.21007,57.12499 1.01846,6.55294 1.1018,20.99137 0.15782,27.34048 -1.94711,13.09602 -5.79693,24.69911 -11.71242,35.30036 -9.95918,17.84801 -24.93767,32.12624 -43.02345,41.01208 -10.12899,4.97653 -18.86933,7.69316 -30.62827,9.51971 -3.45936,0.53735 -18.7541,1.01161 -21.28405,0.65995 z m 42.61791,-37.5678 c 18.81678,-10.87516 34.487,-20.03118 34.82272,-20.34669 0.56302,-0.52916 0.60331,-1.46312 0.51912,-12.03189 l -0.0913,-11.45823 -27.85961,16.07838 c -42.65023,24.61436 -41.55497,23.99785 -42.63426,23.99785 -1.42914,0 -49.5763,-27.85208 -50.08779,-28.97469 -0.25811,-0.56649 -0.374048,-9.4564 -0.374048,-28.68144 0,-23.54233 0.077,-28.00536 0.496749,-28.79505 0.376179,-0.70773 8.943279,-5.80643 35.297539,-21.00731 29.80127,-17.189095 34.71798,-20.134278 34.2244,-20.500927 -0.317,-0.235495 -4.57313,-2.766247 -9.45805,-5.623853 -6.75919,-3.954024 -9.16393,-5.195255 -10.0628,-5.19407 -0.93042,0 -8.52246,4.251102 -35.76682,20.021475 -20.884919,12.089205 -34.687808,20.280135 -34.843448,20.676815 -0.141771,0.36131 -0.268711,18.59693 -0.282092,40.52362 l -0.0243,39.86664 0.77868,0.87368 c 1.160549,1.30208 69.10833,40.34445 70.21796,40.34677 0.58174,0 13.37583,-7.19981 35.12733,-19.77108 z m -5.81346,-43.6078 c 14.91278,-8.63257 27.23402,-15.92992 27.38054,-16.21639 0.40174,-0.78542 0.72349,-22.15095 0.33357,-22.15095 -0.31242,0 -69.36525,40.00449 -72.04584,41.73844 -1.00207,0.64817 -1.29781,1.06529 -1.29781,1.83045 0,0.54502 0.25504,1.20471 0.56676,1.46594 0.31171,0.26124 3.9326,2.46683 8.0464,4.90131 6.52048,3.85869 7.63499,4.40712 8.69095,4.27653 0.78936,-0.0976 10.65595,-5.61702 28.32543,-15.84533 z M 160.10443,132.6973 c 19.6892,-11.45752 35.84415,-20.97695 35.89989,-21.15427 0.0557,-0.17733 -3.9606,-2.64783 -8.92518,-5.48999 -8.13608,-4.65777 -9.11726,-5.13331 -9.94631,-4.82037 -1.65897,0.62619 -54.53555,31.33316 -55.42256,32.18551 l -0.86521,0.83137 -0.10798,8.8005 c -0.0744,6.06199 0.0134,9.02735 0.28219,9.52953 0.47205,0.88206 1.65215,1.40092 2.59445,1.14072 0.38069,-0.10513 16.80151,-9.56545 36.49071,-21.023 z m 55.08424,14.85233 c 2.72411,-1.62321 5.0739,-3.14162 5.22172,-3.37429 0.46719,-0.73533 0.33938,-19.77822 -0.13594,-20.25353 -1.07017,-1.07017 -4.73652,0.29101 -9.36152,3.47558 l -0.95172,0.65532 v 11.22411 c 0,6.17325 0.0618,11.22408 0.13725,11.22408 0.0755,0 2.36608,-1.32804 5.09021,-2.95127 z m -11.24088,-40.36631 c 3.90219,-2.27629 4.66844,-3.14746 4.02008,-4.57047 -0.51465,-1.12953 -14.62044,-9.274221 -16.13645,-9.317205 -0.76217,-0.02145 -2.52497,0.78441 -5.84942,2.674494 -2.61718,1.487987 -4.81917,2.803587 -4.89332,2.923564 -0.24743,0.400375 17.23869,10.366057 18.23998,10.395357 0.58918,0.0172 2.37695,-0.79776 4.61913,-2.10574 z"
     id="path3517" /><metadata
     id="metadata5568"><rdf:RDF><cc:Work
         rdf:about=""><dc:title>black_2</dc:title></cc:Work></rdf:RDF></metadata></svg>
