<?xml version="1.0" encoding="UTF-8" standalone="no"?>
<svg
   width="1127"
   height="1113"
   viewBox="0 0 1127 1113"
   version="1.1"
   id="svg68"
   sodipodi:docname="composite.svg"
   inkscape:version="1.2.2 (732a01da63, 2022-12-09)"
   xml:space="preserve"
   xmlns:inkscape="http://www.inkscape.org/namespaces/inkscape"
   xmlns:sodipodi="http://sodipodi.sourceforge.net/DTD/sodipodi-0.dtd"
   xmlns="http://www.w3.org/2000/svg"
   xmlns:svg="http://www.w3.org/2000/svg"
   xmlns:rdf="http://www.w3.org/1999/02/22-rdf-syntax-ns#"
   xmlns:cc="http://creativecommons.org/ns#"
   xmlns:dc="http://purl.org/dc/elements/1.1/"><sodipodi:namedview
     id="namedview70"
     pagecolor="#ffffff"
     bordercolor="#000000"
     borderopacity="0.25"
     inkscape:showpageshadow="2"
     inkscape:pageopacity="0.0"
     inkscape:pagecheckerboard="0"
     inkscape:deskcolor="#d1d1d1"
     showgrid="false"
     inkscape:zoom="0.35355339"
     inkscape:cx="-120.20815"
     inkscape:cy="808.93015"
     inkscape:window-width="1920"
     inkscape:window-height="991"
     inkscape:window-x="-9"
     inkscape:window-y="-9"
     inkscape:window-maximized="1"
     inkscape:current-layer="svg68" /><defs
     id="defs4"><style
       id="style2">.a{fill:#fff;}.b{fill:#fff200;}</style></defs><title
     id="title6">composite</title><metadata
     id="metadata473"><rdf:RDF><cc:Work
         rdf:about=""><dc:title>composite</dc:title></cc:Work></rdf:RDF></metadata><g
     id="g3551"
     inkscape:label="black"
     style="display:inline"
     transform="matrix(0.2822327,0,0,0.2822327,843.66017,112.54738)"><g
       id="g3519"
       inkscape:label="out"
       transform="translate(-372.77381,-15.940985)"><path
         style="display:inline;fill:#000000;fill-opacity:1;stroke:#fff200;stroke-width:1.22623;stroke-opacity:1"
         d="m 584.01955,3179.8671 c -2.02326,-0.2813 -8.9208,-1.0992 -15.32785,-1.8179 -52.90641,-5.9339 -106.71272,-25.9331 -153.27869,-56.972 -22.77787,-15.1826 -38.67841,-28.4045 -57.66809,-47.9531 -17.35603,-17.8668 -27.64857,-30.6128 -41.45834,-51.3409 -30.06371,-45.1248 -49.65038,-98.8574 -56.76696,-155.7301 -2.29048,-18.3047 -1.90693,-64.1141 0.69305,-82.7705 10.43511,-74.8778 39.74816,-138.5433 89.18928,-193.7115 70.1401,-78.265 178.39041,-122.4932 282.52112,-115.4308 53.58053,3.634 97.21272,15.7948 144.00142,40.1349 29.49814,15.3454 56.05165,34.7498 81.91272,59.8592 56.06891,54.4392 91.16825,123.0816 103.49644,202.4039 3.60855,23.2182 3.90384,74.3761 0.55915,96.8721 -6.89892,46.4015 -20.53954,87.5133 -41.49916,125.0754 -35.28709,63.2386 -88.35854,113.8289 -152.43963,145.313 -35.88879,17.6327 -66.85735,27.2582 -108.52134,33.73 -12.25712,1.9039 -66.44907,3.5843 -75.41312,2.3383 z m 151.00273,-133.1093 c 66.67116,-38.5326 122.1935,-70.974 123.38301,-72.0919 1.99488,-1.8749 2.13763,-5.1841 1.83933,-42.6311 l -0.32349,-40.5985 -98.71149,56.9685 c -151.11725,87.213 -147.23655,85.0286 -151.06066,85.0286 -5.0637,0 -175.6575,-98.6848 -177.4698,-102.6624 -0.91453,-2.0072 -1.32532,-33.5057 -1.32532,-101.6234 0,-83.4146 0.27282,-99.2279 1.76007,-102.0259 1.33287,-2.5076 31.68758,-20.5732 125.06534,-74.4326 105.59113,-60.904 123.0119,-71.3393 121.26306,-72.6384 -1.12319,-0.8344 -16.2034,-9.8013 -33.51153,-19.9263 -23.949,-14.0098 -32.46941,-18.4077 -35.65427,-18.4035 -3.29664,0 -30.19657,15.0624 -126.72812,70.9396 -73.9989,42.8342 -122.90496,71.8561 -123.45642,73.2616 -0.50232,1.2802 -0.95209,65.8922 -0.9995,143.5823 l -0.0861,141.2545 2.759,3.0956 c 4.11203,4.6135 244.86294,142.9475 248.79452,142.9557 2.06124,0 47.39294,-25.5102 124.46233,-70.0524 z m -20.59811,-154.5101 c 52.8386,-30.5867 96.49492,-56.4425 97.01406,-57.4575 1.42344,-2.7829 2.56345,-78.4847 1.1819,-78.4847 -1.10693,0 -245.77326,141.7429 -255.27106,147.8866 -3.55051,2.2966 -4.59837,3.7745 -4.59837,6.4856 0,1.9311 0.90366,4.2685 2.00813,5.1941 1.10445,0.9256 13.9339,8.7404 28.50981,17.3662 23.10321,13.672 27.05211,15.6152 30.79356,15.1525 2.79684,-0.3458 37.7559,-19.9021 100.36197,-56.1428 z m -67.32802,-126.676 c 69.76229,-40.596 127.00211,-74.325 127.19961,-74.9533 0.19736,-0.6283 -14.03307,-9.3817 -31.62348,-19.452 -28.82756,-16.5033 -32.30405,-18.1882 -35.24152,-17.0794 -5.87802,2.2187 -193.22903,111.0189 -196.37186,114.0389 l -3.06559,2.9457 -0.38259,31.1817 c -0.26361,21.4787 0.0475,31.9855 0.99985,33.7648 1.67255,3.1253 5.85386,4.9637 9.19259,4.0418 1.34885,-0.3725 59.5307,-33.8921 129.29299,-74.4882 z m 195.17313,52.6244 c 9.65203,-5.7513 17.97772,-11.1313 18.50147,-11.9557 1.65534,-2.6054 1.20248,-70.0777 -0.48166,-71.7618 -3.7918,-3.7918 -16.78232,1.0311 -33.16951,12.3146 l -3.37211,2.3219 v 39.769 c 0,21.8729 0.21897,39.7689 0.4863,39.7689 0.26751,0 8.38347,-4.7055 18.03551,-10.4569 z m -39.82841,-143.0249 c 13.82614,-8.0653 16.5411,-11.152 14.24385,-16.194 -1.8235,-4.0021 -51.80279,-32.8602 -57.17428,-33.0125 -2.7005,-0.076 -8.94641,2.7793 -20.72552,9.4762 -9.27313,5.2722 -17.07516,9.9336 -17.33789,10.3587 -0.87669,1.4186 61.0797,36.7288 64.62745,36.8326 2.08757,0.061 8.42195,-2.8266 16.36639,-7.461 z"
         id="path3517" /></g><g
       id="g3533"
       style="display:inline"
       inkscape:label="in"
       transform="translate(-14.714769,1240.9444)"><path
         d="M 211,106 A 100,100 0 1 0 311,206 100,100 0 0 0 211,106 Z m 0,189.268 A 89.268,89.268 0 1 1 300.268,206 89.268,89.268 0 0 1 211,295.268 Z"
         id="path3521"
         style="display:inline;fill:#000000;fill-opacity:1"
         transform="matrix(3.5431755,0,0,3.5431755,-494.3596,-400.0205)" /><path
         style="display:inline;opacity:1;fill:#000000;fill-opacity:1"
         d="m 454.83935,259.11311 -0.29069,74.8721 c 0,0 -1.20333,4.24989 -4.65698,6.09882 L 261.2587,449.20846 c -7.49897,3.84815 -12.50997,-0.32401 -12.50997,-0.32401 l -51.15938,-30.02134 c -5.94491,-6.41359 0.47533,-10.50332 0.47533,-10.50332 z"
         id="path3523"
         sodipodi:nodetypes="cccccccc" /><path
         style="display:inline;opacity:1;fill:#000000;fill-opacity:1"
         d="m 466.05495,330.92036 34.64618,-20.576 c 0,0 2.92298,-2.04289 3.09565,-8.59215 l -0.28144,-60.08428 c 0,0 -1.21558,-8.75226 -11.26255,-4.77533 l -22.75069,13.06404 c -3.83582,2.52844 -3.35876,6.09879 -3.35876,6.09879 z"
         id="path3525"
         sodipodi:nodetypes="cccccccc" /><path
         style="display:inline;opacity:1;fill:#000000;fill-opacity:1"
         d="m 363.61286,148.92876 62.57895,36.15083 c 2.6164,1.02912 4.48444,-0.0206 4.48444,-0.0206 l 25.471,-14.83886 c 0,0 6.32733,-5.91555 -0.92497,-11.81112 l -48.67325,-27.98632 c -5.40222,-2.98478 -10.01868,-0.32065 -10.01868,-0.32065 z"
         id="path3527"
         sodipodi:nodetypes="cccccccc" /><path
         style="display:inline;opacity:1;fill:#000000;fill-opacity:1"
         d="m 416.71435,193.23811 -61.75,-35.5 c 0,0 -3.02015,-1.57276 -7.25,0.25 L 155.20268,269.49395 c -5.30258,3.4362 -4.61333,9.24416 -4.61333,9.24416 l -0.003,58.83844 c 3.62614,8.165 11.47392,3.92293 11.47392,3.92293 z"
         id="path3529"
         sodipodi:nodetypes="cccccccc" /><path
         style="display:inline;opacity:1;fill:#000000;fill-opacity:1"
         d="M 248.62673,618.35117 5.8828418,478.41019 c 0,0 -2.895211,-1.80207 -3.738961,-5.23957 L 2.0893444,191.77826 c 0,0 -0.026362,-4.03246 3.2236381,-5.93871 L 246.22714,46.425332 c 6.03086,-4.08455 11.71783,-0.217314 11.71783,-0.217314 L 322.51227,84.00752 78.030101,225.2521 c 0,0 -4.728777,2.87261 -5.524272,9.45754 l 0.07544,194.34707 c 0,0 6.04e-4,5.56432 4.688104,8.97057 l 170.289577,98.39599 c 0,0 5.80465,2.52749 12.10921,-1.59099 l 242.68598,-140.04712 0.10323,76.81538 c 0,0 -0.0971,4.38468 -3.94079,6.69088 L 256.78752,618.17793 c 0,0 -3.56213,2.3874 -8.16079,0.17324 z"
         id="path3531"
         sodipodi:nodetypes="ccccccccccccccccccc"
         inkscape:label="path674" /></g><g
       id="g3549"
       inkscape:label="full"
       style="display:inline"
       transform="translate(-1.3186295e-5,1.4253323e-5)"><path
         style="display:inline;opacity:1;fill:#ffffff"
         d="M 233.62347,614.88287 -9.1204229,474.94189 c 0,0 -2.8952111,-1.80207 -3.7389611,-5.23957 l -0.05454,-281.39236 c 0,0 -0.02636,-4.03246 3.2236382,-5.93871 L 231.22388,42.957031 c 6.03086,-4.08455 11.71783,-0.217314 11.71783,-0.217314 L 307.50901,80.539219 63.026837,221.7838 c 0,0 -4.728777,2.87261 -5.524272,9.45754 l 0.07544,194.34707 c 0,0 6.04e-4,5.56432 4.688104,8.97057 l 170.289581,98.39599 c 0,0 5.80465,2.52749 12.10921,-1.59099 l 242.68598,-140.04712 0.10323,76.81538 c 0,0 -0.0971,4.38468 -3.94079,6.69088 L 241.78426,614.70963 c 0,0 -3.56213,2.3874 -8.16079,0.17324 z"
         id="path3535"
         sodipodi:nodetypes="ccccccccccccccccccc"
         inkscape:label="path674" /><path
         style="display:inline;opacity:1;fill:#ffffff"
         d="m 401.71109,189.76981 -61.75,-35.5 c 0,0 -3.02015,-1.57276 -7.25,0.25 L 140.19942,266.02565 c -5.30258,3.4362 -4.61333,9.24416 -4.61333,9.24416 l -0.003,58.83844 c 3.62614,8.165 11.47392,3.92293 11.47392,3.92293 z"
         id="path3537"
         sodipodi:nodetypes="cccccccc" /><path
         style="display:inline;opacity:1;fill:#ffffff"
         d="m 348.6096,145.46046 62.57895,36.15083 c 2.6164,1.02912 4.48444,-0.0206 4.48444,-0.0206 l 25.471,-14.83886 c 0,0 6.32733,-5.91555 -0.92497,-11.81112 l -48.67325,-27.98632 c -5.40222,-2.98478 -10.01868,-0.32065 -10.01868,-0.32065 z"
         id="path3539"
         sodipodi:nodetypes="cccccccc" /><path
         style="display:inline;opacity:1;fill:#ffffff"
         d="m 451.05169,327.45206 34.64618,-20.576 c 0,0 2.92298,-2.04289 3.09565,-8.59215 l -0.28144,-60.08428 c 0,0 -1.21558,-8.75226 -11.26255,-4.77533 l -22.75069,13.06404 c -3.83582,2.52844 -3.35876,6.09879 -3.35876,6.09879 z"
         id="path3541"
         sodipodi:nodetypes="cccccccc" /><path
         style="display:inline;opacity:1;fill:#ffffff"
         d="m 439.83609,255.64481 -0.29069,74.8721 c 0,0 -1.20333,4.24989 -4.65698,6.09882 L 246.25544,445.74016 c -7.49897,3.84815 -12.50997,-0.32401 -12.50997,-0.32401 l -51.15938,-30.02134 c -5.94491,-6.41359 0.47533,-10.50332 0.47533,-10.50332 z"
         id="path3543"
         sodipodi:nodetypes="cccccccc" /><path
         d="M 238.24717,-27.912198 A 354.31755,354.31755 0 1 0 592.56472,326.40535 354.31755,354.31755 0 0 0 238.24717,-27.912198 Z m 0,670.609738 A 316.29219,316.29219 0 1 1 554.53936,326.40535 316.29219,316.29219 0 0 1 238.24717,642.69754 Z"
         id="path3545"
         style="display:inline;fill:#ffffff;stroke-width:3.54318" /><path
         style="display:inline;fill:#000000;fill-opacity:1;stroke:#fff200;stroke-width:0.613115;stroke-opacity:1"
         d="m 217.79132,641.79917 c -18.71863,-1.61275 -33.31857,-3.74606 -48.06938,-7.02385 C 96.391217,618.48033 31.161491,576.42836 -14.234064,516.18343 -34.700968,489.02155 -51.331429,457.06137 -62.154768,424.0901 -76.908232,379.14626 -81.268109,329.65466 -74.620155,282.58669 -61.86444,192.27501 -10.813943,111.91919 65.560552,61.935894 107.04484,34.786525 153.32307,18.27313 205.22244,12.100564 c 13.15691,-1.564808 52.28724,-1.580752 65.80984,-0.02834 58.82908,6.760272 111.68196,27.688818 157.67053,62.433941 47.39157,35.805135 83.89627,84.457355 104.84341,139.731815 24.32582,64.19001 27.21078,133.96127 8.25132,199.55374 -21.08828,72.95717 -67.35088,135.53487 -130.87506,177.02974 -42.25463,27.6013 -88.25164,43.95425 -140.40329,49.91653 -7.83212,0.8954 -45.78215,1.65806 -52.72787,1.05966 z m 144.66102,-96.47461 c 66.98781,-38.76953 122.47255,-71.21007 123.29946,-72.09012 l 1.50347,-1.6001 0.16618,-40.47444 0.16617,-40.47443 -2.0055,1.2152 c -4.37271,2.64948 -241.25986,139.208 -243.25186,140.22758 -1.23888,0.63409 -3.47104,1.09098 -5.33,1.09098 -3.0645,0 -4.33561,-0.65658 -30.36353,-15.68429 C 58.203042,431.83378 61.836746,433.96993 59.914254,431.28136 l -1.839369,-2.57224 -0.174678,-98.50548 c -0.134287,-75.69704 -0.0031,-99.13246 0.568042,-101.21315 0.408563,-1.4892 1.490897,-3.55848 2.405178,-4.59837 1.04428,-1.18774 47.271243,-28.21962 124.332863,-72.70546 67.4688,-38.94811 122.67495,-70.952696 122.68033,-71.121316 0.007,-0.168655 -14.97346,-9.065108 -33.28636,-19.769998 -37.17596,-21.731394 -36.42253,-21.397662 -42.18282,-18.685538 -1.80588,0.850256 -57.36015,32.847008 -123.4539,71.103952 -106.3737916,61.57213 -120.293582,69.79737 -121.242515,71.64251 -1.01147,1.96678 -1.072059,10.07545 -1.072944,143.59119 -0.0012,151.29299 -0.159443,143.17618 2.848571,145.81836 0.8496534,0.7463 161.180338,93.36176 237.456538,137.16742 6.64576,3.81667 8.02041,4.38135 10.6661,4.38135 2.91691,0 7.85837,-2.79033 124.83315,-70.49003 z m -118.85437,-98.325 c 2.03385,-0.61814 170.28009,-97.35721 190.1269,-109.32014 6.26171,-3.77433 5.8045,-0.52964 6.2299,-44.20997 0.20444,-20.99151 0.22995,-38.16638 0.057,-38.16638 -1.15004,0 -257.20013,149.40412 -258.5475,150.86136 -1.98411,2.14589 -2.20924,4.92643 -0.60992,7.53265 0.7626,1.2427 8.72748,6.23967 27.74023,17.40355 14.66878,8.61314 27.36026,15.87512 28.20329,16.13771 2.30838,0.71894 3.82397,0.66573 6.80009,-0.23881 z m 30.27927,-182.34988 c 70.13259,-40.83875 127.59372,-74.49211 127.69144,-74.78524 0.0978,-0.29302 -13.90714,-8.6226 -31.12187,-18.50994 l -31.2995,-17.97697 -3.19849,0.30082 c -2.90367,0.27282 -12.09899,5.45546 -99.76406,56.22736 -53.11107,30.75969 -97.30729,56.71578 -98.21381,57.68024 -0.90652,0.96445 -1.93961,2.80286 -2.29577,4.08538 -0.41412,1.4914 -0.6473,13.1601 -0.64691,32.3745 6e-4,28.66705 0.0549,30.12496 1.18586,31.84064 1.73666,2.63445 3.57358,3.4716 7.08373,3.22822 2.80613,-0.19452 13.85651,-6.4962 130.57938,-74.46487 z m 194.93017,52.70959 c 9.94052,-5.95289 17.64955,-10.9735 18.39344,-11.97901 1.26254,-1.70657 1.28065,-2.21126 1.28065,-35.70001 v -33.96899 l -1.59252,-1.59252 c -2.07251,-2.07251 -5.63039,-2.57093 -8.8247,-1.23628 -1.32161,0.5522 -7.48188,3.93629 -13.68956,7.52024 -8.10026,4.67661 -11.61254,7.05064 -12.44094,8.40913 -1.09785,1.80032 -1.15436,3.77366 -1.15656,40.36584 -10e-4,21.16013 0.2048,38.46319 0.45757,38.45128 0.25298,-0.0106 8.16057,-4.63327 17.57262,-10.26968 z M 428.18987,174.75234 c 13.82997,-8.02419 15.84079,-9.74579 15.84079,-13.56239 0,-4.23452 -1.43892,-5.31962 -25.45729,-19.19675 -12.46971,-7.20469 -24.41273,-13.93644 -26.54002,-14.9595 -6.41084,-3.08309 -6.99699,-2.89796 -26.72089,8.43903 -9.31022,5.35137 -16.92373,9.87816 -16.91888,10.05954 0.004,0.18141 1.31541,1.05696 2.91232,1.9457 1.59691,0.88873 15.85394,9.09682 31.68233,18.24016 18.43231,10.64752 29.37944,16.62426 30.44938,16.62426 1.02412,0 6.73214,-2.93676 14.75226,-7.59005 z"
         id="path3547" /></g></g><g
     id="g3461"
     inkscape:label="white"
     style="display:inline"
     transform="matrix(0.2822327,0,0,0.2822327,493.69111,113.69419)"><g
       id="g3429"
       inkscape:label="out"
       transform="translate(-372.77381,-15.940985)"><path
         style="display:inline;fill:#ffffff;fill-opacity:1;stroke:#fff200;stroke-width:1.22623;stroke-opacity:1"
         d="m 584.01955,3179.8671 c -2.02326,-0.2813 -8.9208,-1.0992 -15.32785,-1.8179 -52.90641,-5.9339 -106.71272,-25.9331 -153.27869,-56.972 -22.77787,-15.1826 -38.67841,-28.4045 -57.66809,-47.9531 -17.35603,-17.8668 -27.64857,-30.6128 -41.45834,-51.3409 -30.06371,-45.1248 -49.65038,-98.8574 -56.76696,-155.7301 -2.29048,-18.3047 -1.90693,-64.1141 0.69305,-82.7705 10.43511,-74.8778 39.74816,-138.5433 89.18928,-193.7115 70.1401,-78.265 178.39041,-122.4932 282.52112,-115.4308 53.58053,3.634 97.21272,15.7948 144.00142,40.1349 29.49814,15.3454 56.05165,34.7498 81.91272,59.8592 56.06891,54.4392 91.16825,123.0816 103.49644,202.4039 3.60855,23.2182 3.90384,74.3761 0.55915,96.8721 -6.89892,46.4015 -20.53954,87.5133 -41.49916,125.0754 -35.28709,63.2386 -88.35854,113.8289 -152.43963,145.313 -35.88879,17.6327 -66.85735,27.2582 -108.52134,33.73 -12.25712,1.9039 -66.44907,3.5843 -75.41312,2.3383 z m 151.00273,-133.1093 c 66.67116,-38.5326 122.1935,-70.974 123.38301,-72.0919 1.99488,-1.8749 2.13763,-5.1841 1.83933,-42.6311 l -0.32349,-40.5985 -98.71149,56.9685 c -151.11725,87.213 -147.23655,85.0286 -151.06066,85.0286 -5.0637,0 -175.6575,-98.6848 -177.4698,-102.6624 -0.91453,-2.0072 -1.32532,-33.5057 -1.32532,-101.6234 0,-83.4146 0.27282,-99.2279 1.76007,-102.0259 1.33287,-2.5076 31.68758,-20.5732 125.06534,-74.4326 105.59113,-60.904 123.0119,-71.3393 121.26306,-72.6384 -1.12319,-0.8344 -16.2034,-9.8013 -33.51153,-19.9263 -23.949,-14.0098 -32.46941,-18.4077 -35.65427,-18.4035 -3.29664,0 -30.19657,15.0624 -126.72812,70.9396 -73.9989,42.8342 -122.90496,71.8561 -123.45642,73.2616 -0.50232,1.2802 -0.95209,65.8922 -0.9995,143.5823 l -0.0861,141.2545 2.759,3.0956 c 4.11203,4.6135 244.86294,142.9475 248.79452,142.9557 2.06124,0 47.39294,-25.5102 124.46233,-70.0524 z m -20.59811,-154.5101 c 52.8386,-30.5867 96.49492,-56.4425 97.01406,-57.4575 1.42344,-2.7829 2.56345,-78.4847 1.1819,-78.4847 -1.10693,0 -245.77326,141.7429 -255.27106,147.8866 -3.55051,2.2966 -4.59837,3.7745 -4.59837,6.4856 0,1.9311 0.90366,4.2685 2.00813,5.1941 1.10445,0.9256 13.9339,8.7404 28.50981,17.3662 23.10321,13.672 27.05211,15.6152 30.79356,15.1525 2.79684,-0.3458 37.7559,-19.9021 100.36197,-56.1428 z m -67.32802,-126.676 c 69.76229,-40.596 127.00211,-74.325 127.19961,-74.9533 0.19736,-0.6283 -14.03307,-9.3817 -31.62348,-19.452 -28.82756,-16.5033 -32.30405,-18.1882 -35.24152,-17.0794 -5.87802,2.2187 -193.22903,111.0189 -196.37186,114.0389 l -3.06559,2.9457 -0.38259,31.1817 c -0.26361,21.4787 0.0475,31.9855 0.99985,33.7648 1.67255,3.1253 5.85386,4.9637 9.19259,4.0418 1.34885,-0.3725 59.5307,-33.8921 129.29299,-74.4882 z m 195.17313,52.6244 c 9.65203,-5.7513 17.97772,-11.1313 18.50147,-11.9557 1.65534,-2.6054 1.20248,-70.0777 -0.48166,-71.7618 -3.7918,-3.7918 -16.78232,1.0311 -33.16951,12.3146 l -3.37211,2.3219 v 39.769 c 0,21.8729 0.21897,39.7689 0.4863,39.7689 0.26751,0 8.38347,-4.7055 18.03551,-10.4569 z m -39.82841,-143.0249 c 13.82614,-8.0653 16.5411,-11.152 14.24385,-16.194 -1.8235,-4.0021 -51.80279,-32.8602 -57.17428,-33.0125 -2.7005,-0.076 -8.94641,2.7793 -20.72552,9.4762 -9.27313,5.2722 -17.07516,9.9336 -17.33789,10.3587 -0.87669,1.4186 61.0797,36.7288 64.62745,36.8326 2.08757,0.061 8.42195,-2.8266 16.36639,-7.461 z"
         id="path3427" /></g><g
       id="g3443"
       style="display:inline"
       inkscape:label="in"
       transform="translate(-14.714769,1240.9444)"><path
         d="M 211,106 A 100,100 0 1 0 311,206 100,100 0 0 0 211,106 Z m 0,189.268 A 89.268,89.268 0 1 1 300.268,206 89.268,89.268 0 0 1 211,295.268 Z"
         id="path3431"
         style="display:inline;fill:#ffffff;fill-opacity:1"
         transform="matrix(3.5431755,0,0,3.5431755,-494.3596,-400.0205)" /><path
         style="display:inline;opacity:1;fill:#ffffff;fill-opacity:1"
         d="m 454.83935,259.11311 -0.29069,74.8721 c 0,0 -1.20333,4.24989 -4.65698,6.09882 L 261.2587,449.20846 c -7.49897,3.84815 -12.50997,-0.32401 -12.50997,-0.32401 l -51.15938,-30.02134 c -5.94491,-6.41359 0.47533,-10.50332 0.47533,-10.50332 z"
         id="path3433"
         sodipodi:nodetypes="cccccccc" /><path
         style="display:inline;opacity:1;fill:#ffffff;fill-opacity:1"
         d="m 466.05495,330.92036 34.64618,-20.576 c 0,0 2.92298,-2.04289 3.09565,-8.59215 l -0.28144,-60.08428 c 0,0 -1.21558,-8.75226 -11.26255,-4.77533 l -22.75069,13.06404 c -3.83582,2.52844 -3.35876,6.09879 -3.35876,6.09879 z"
         id="path3435"
         sodipodi:nodetypes="cccccccc" /><path
         style="display:inline;opacity:1;fill:#ffffff;fill-opacity:1"
         d="m 363.61286,148.92876 62.57895,36.15083 c 2.6164,1.02912 4.48444,-0.0206 4.48444,-0.0206 l 25.471,-14.83886 c 0,0 6.32733,-5.91555 -0.92497,-11.81112 l -48.67325,-27.98632 c -5.40222,-2.98478 -10.01868,-0.32065 -10.01868,-0.32065 z"
         id="path3437"
         sodipodi:nodetypes="cccccccc" /><path
         style="display:inline;opacity:1;fill:#ffffff;fill-opacity:1"
         d="m 416.71435,193.23811 -61.75,-35.5 c 0,0 -3.02015,-1.57276 -7.25,0.25 L 155.20268,269.49395 c -5.30258,3.4362 -4.61333,9.24416 -4.61333,9.24416 l -0.003,58.83844 c 3.62614,8.165 11.47392,3.92293 11.47392,3.92293 z"
         id="path3439"
         sodipodi:nodetypes="cccccccc" /><path
         style="display:inline;opacity:1;fill:#ffffff;fill-opacity:1"
         d="M 248.62673,618.35117 5.8828418,478.41019 c 0,0 -2.895211,-1.80207 -3.738961,-5.23957 L 2.0893444,191.77826 c 0,0 -0.026362,-4.03246 3.2236381,-5.93871 L 246.22714,46.425332 c 6.03086,-4.08455 11.71783,-0.217314 11.71783,-0.217314 L 322.51227,84.00752 78.030101,225.2521 c 0,0 -4.728777,2.87261 -5.524272,9.45754 l 0.07544,194.34707 c 0,0 6.04e-4,5.56432 4.688104,8.97057 l 170.289577,98.39599 c 0,0 5.80465,2.52749 12.10921,-1.59099 l 242.68598,-140.04712 0.10323,76.81538 c 0,0 -0.0971,4.38468 -3.94079,6.69088 L 256.78752,618.17793 c 0,0 -3.56213,2.3874 -8.16079,0.17324 z"
         id="path3441"
         sodipodi:nodetypes="ccccccccccccccccccc"
         inkscape:label="path674" /></g><g
       id="g3459"
       inkscape:label="full"
       style="display:inline"
       transform="translate(-1.3186295e-5,1.4253323e-5)"><path
         style="display:inline;opacity:1;fill:#000000"
         d="M 233.62347,614.88287 -9.1204229,474.94189 c 0,0 -2.8952111,-1.80207 -3.7389611,-5.23957 l -0.05454,-281.39236 c 0,0 -0.02636,-4.03246 3.2236382,-5.93871 L 231.22388,42.957031 c 6.03086,-4.08455 11.71783,-0.217314 11.71783,-0.217314 L 307.50901,80.539219 63.026837,221.7838 c 0,0 -4.728777,2.87261 -5.524272,9.45754 l 0.07544,194.34707 c 0,0 6.04e-4,5.56432 4.688104,8.97057 l 170.289581,98.39599 c 0,0 5.80465,2.52749 12.10921,-1.59099 l 242.68598,-140.04712 0.10323,76.81538 c 0,0 -0.0971,4.38468 -3.94079,6.69088 L 241.78426,614.70963 c 0,0 -3.56213,2.3874 -8.16079,0.17324 z"
         id="path3445"
         sodipodi:nodetypes="ccccccccccccccccccc"
         inkscape:label="path674" /><path
         style="display:inline;opacity:1;fill:#000000"
         d="m 401.71109,189.76981 -61.75,-35.5 c 0,0 -3.02015,-1.57276 -7.25,0.25 L 140.19942,266.02565 c -5.30258,3.4362 -4.61333,9.24416 -4.61333,9.24416 l -0.003,58.83844 c 3.62614,8.165 11.47392,3.92293 11.47392,3.92293 z"
         id="path3447"
         sodipodi:nodetypes="cccccccc" /><path
         style="display:inline;opacity:1;fill:#000000"
         d="m 348.6096,145.46046 62.57895,36.15083 c 2.6164,1.02912 4.48444,-0.0206 4.48444,-0.0206 l 25.471,-14.83886 c 0,0 6.32733,-5.91555 -0.92497,-11.81112 l -48.67325,-27.98632 c -5.40222,-2.98478 -10.01868,-0.32065 -10.01868,-0.32065 z"
         id="path3449"
         sodipodi:nodetypes="cccccccc" /><path
         style="display:inline;opacity:1;fill:#000000"
         d="m 451.05169,327.45206 34.64618,-20.576 c 0,0 2.92298,-2.04289 3.09565,-8.59215 l -0.28144,-60.08428 c 0,0 -1.21558,-8.75226 -11.26255,-4.77533 l -22.75069,13.06404 c -3.83582,2.52844 -3.35876,6.09879 -3.35876,6.09879 z"
         id="path3451"
         sodipodi:nodetypes="cccccccc" /><path
         style="display:inline;opacity:1;fill:#000000"
         d="m 439.83609,255.64481 -0.29069,74.8721 c 0,0 -1.20333,4.24989 -4.65698,6.09882 L 246.25544,445.74016 c -7.49897,3.84815 -12.50997,-0.32401 -12.50997,-0.32401 l -51.15938,-30.02134 c -5.94491,-6.41359 0.47533,-10.50332 0.47533,-10.50332 z"
         id="path3453"
         sodipodi:nodetypes="cccccccc" /><path
         d="M 238.24717,-27.912198 A 354.31755,354.31755 0 1 0 592.56472,326.40535 354.31755,354.31755 0 0 0 238.24717,-27.912198 Z m 0,670.609738 A 316.29219,316.29219 0 1 1 554.53936,326.40535 316.29219,316.29219 0 0 1 238.24717,642.69754 Z"
         id="path3455"
         style="display:inline;stroke-width:3.54318" /><path
         style="display:inline;fill:#ffffff;fill-opacity:1;stroke:#fff200;stroke-width:0.613115;stroke-opacity:1"
         d="m 217.79132,641.79917 c -18.71863,-1.61275 -33.31857,-3.74606 -48.06938,-7.02385 C 96.391217,618.48033 31.161491,576.42836 -14.234064,516.18343 -34.700968,489.02155 -51.331429,457.06137 -62.154768,424.0901 -76.908232,379.14626 -81.268109,329.65466 -74.620155,282.58669 -61.86444,192.27501 -10.813943,111.91919 65.560552,61.935894 107.04484,34.786525 153.32307,18.27313 205.22244,12.100564 c 13.15691,-1.564808 52.28724,-1.580752 65.80984,-0.02834 58.82908,6.760272 111.68196,27.688818 157.67053,62.433941 47.39157,35.805135 83.89627,84.457355 104.84341,139.731815 24.32582,64.19001 27.21078,133.96127 8.25132,199.55374 -21.08828,72.95717 -67.35088,135.53487 -130.87506,177.02974 -42.25463,27.6013 -88.25164,43.95425 -140.40329,49.91653 -7.83212,0.8954 -45.78215,1.65806 -52.72787,1.05966 z m 144.66102,-96.47461 c 66.98781,-38.76953 122.47255,-71.21007 123.29946,-72.09012 l 1.50347,-1.6001 0.16618,-40.47444 0.16617,-40.47443 -2.0055,1.2152 c -4.37271,2.64948 -241.25986,139.208 -243.25186,140.22758 -1.23888,0.63409 -3.47104,1.09098 -5.33,1.09098 -3.0645,0 -4.33561,-0.65658 -30.36353,-15.68429 C 58.203042,431.83378 61.836746,433.96993 59.914254,431.28136 l -1.839369,-2.57224 -0.174678,-98.50548 c -0.134287,-75.69704 -0.0031,-99.13246 0.568042,-101.21315 0.408563,-1.4892 1.490897,-3.55848 2.405178,-4.59837 1.04428,-1.18774 47.271243,-28.21962 124.332863,-72.70546 67.4688,-38.94811 122.67495,-70.952696 122.68033,-71.121316 0.007,-0.168655 -14.97346,-9.065108 -33.28636,-19.769998 -37.17596,-21.731394 -36.42253,-21.397662 -42.18282,-18.685538 -1.80588,0.850256 -57.36015,32.847008 -123.4539,71.103952 -106.3737916,61.57213 -120.293582,69.79737 -121.242515,71.64251 -1.01147,1.96678 -1.072059,10.07545 -1.072944,143.59119 -0.0012,151.29299 -0.159443,143.17618 2.848571,145.81836 0.8496534,0.7463 161.180338,93.36176 237.456538,137.16742 6.64576,3.81667 8.02041,4.38135 10.6661,4.38135 2.91691,0 7.85837,-2.79033 124.83315,-70.49003 z m -118.85437,-98.325 c 2.03385,-0.61814 170.28009,-97.35721 190.1269,-109.32014 6.26171,-3.77433 5.8045,-0.52964 6.2299,-44.20997 0.20444,-20.99151 0.22995,-38.16638 0.057,-38.16638 -1.15004,0 -257.20013,149.40412 -258.5475,150.86136 -1.98411,2.14589 -2.20924,4.92643 -0.60992,7.53265 0.7626,1.2427 8.72748,6.23967 27.74023,17.40355 14.66878,8.61314 27.36026,15.87512 28.20329,16.13771 2.30838,0.71894 3.82397,0.66573 6.80009,-0.23881 z m 30.27927,-182.34988 c 70.13259,-40.83875 127.59372,-74.49211 127.69144,-74.78524 0.0978,-0.29302 -13.90714,-8.6226 -31.12187,-18.50994 l -31.2995,-17.97697 -3.19849,0.30082 c -2.90367,0.27282 -12.09899,5.45546 -99.76406,56.22736 -53.11107,30.75969 -97.30729,56.71578 -98.21381,57.68024 -0.90652,0.96445 -1.93961,2.80286 -2.29577,4.08538 -0.41412,1.4914 -0.6473,13.1601 -0.64691,32.3745 6e-4,28.66705 0.0549,30.12496 1.18586,31.84064 1.73666,2.63445 3.57358,3.4716 7.08373,3.22822 2.80613,-0.19452 13.85651,-6.4962 130.57938,-74.46487 z m 194.93017,52.70959 c 9.94052,-5.95289 17.64955,-10.9735 18.39344,-11.97901 1.26254,-1.70657 1.28065,-2.21126 1.28065,-35.70001 v -33.96899 l -1.59252,-1.59252 c -2.07251,-2.07251 -5.63039,-2.57093 -8.8247,-1.23628 -1.32161,0.5522 -7.48188,3.93629 -13.68956,7.52024 -8.10026,4.67661 -11.61254,7.05064 -12.44094,8.40913 -1.09785,1.80032 -1.15436,3.77366 -1.15656,40.36584 -10e-4,21.16013 0.2048,38.46319 0.45757,38.45128 0.25298,-0.0106 8.16057,-4.63327 17.57262,-10.26968 z M 428.18987,174.75234 c 13.82997,-8.02419 15.84079,-9.74579 15.84079,-13.56239 0,-4.23452 -1.43892,-5.31962 -25.45729,-19.19675 -12.46971,-7.20469 -24.41273,-13.93644 -26.54002,-14.9595 -6.41084,-3.08309 -6.99699,-2.89796 -26.72089,8.43903 -9.31022,5.35137 -16.92373,9.87816 -16.91888,10.05954 0.004,0.18141 1.31541,1.05696 2.91232,1.9457 1.59691,0.88873 15.85394,9.09682 31.68233,18.24016 18.43231,10.64752 29.37944,16.62426 30.44938,16.62426 1.02412,0 6.73214,-2.93676 14.75226,-7.59005 z"
         id="path3457" /></g></g><g
     id="layer1"
     inkscape:label="yellow"
     style="display:inline"
     transform="matrix(0.2822327,0,0,0.2822327,143.68463,112.65415)"><g
       id="g2491"
       inkscape:label="out"
       transform="translate(-372.77381,-15.940985)"><path
         style="display:inline;fill:#fff200;fill-opacity:1;stroke:#fff200;stroke-width:1.22623;stroke-opacity:1"
         d="m 584.01955,3179.8671 c -2.02326,-0.2813 -8.9208,-1.0992 -15.32785,-1.8179 -52.90641,-5.9339 -106.71272,-25.9331 -153.27869,-56.972 -22.77787,-15.1826 -38.67841,-28.4045 -57.66809,-47.9531 -17.35603,-17.8668 -27.64857,-30.6128 -41.45834,-51.3409 -30.06371,-45.1248 -49.65038,-98.8574 -56.76696,-155.7301 -2.29048,-18.3047 -1.90693,-64.1141 0.69305,-82.7705 10.43511,-74.8778 39.74816,-138.5433 89.18928,-193.7115 70.1401,-78.265 178.39041,-122.4932 282.52112,-115.4308 53.58053,3.634 97.21272,15.7948 144.00142,40.1349 29.49814,15.3454 56.05165,34.7498 81.91272,59.8592 56.06891,54.4392 91.16825,123.0816 103.49644,202.4039 3.60855,23.2182 3.90384,74.3761 0.55915,96.8721 -6.89892,46.4015 -20.53954,87.5133 -41.49916,125.0754 -35.28709,63.2386 -88.35854,113.8289 -152.43963,145.313 -35.88879,17.6327 -66.85735,27.2582 -108.52134,33.73 -12.25712,1.9039 -66.44907,3.5843 -75.41312,2.3383 z m 151.00273,-133.1093 c 66.67116,-38.5326 122.1935,-70.974 123.38301,-72.0919 1.99488,-1.8749 2.13763,-5.1841 1.83933,-42.6311 l -0.32349,-40.5985 -98.71149,56.9685 c -151.11725,87.213 -147.23655,85.0286 -151.06066,85.0286 -5.0637,0 -175.6575,-98.6848 -177.4698,-102.6624 -0.91453,-2.0072 -1.32532,-33.5057 -1.32532,-101.6234 0,-83.4146 0.27282,-99.2279 1.76007,-102.0259 1.33287,-2.5076 31.68758,-20.5732 125.06534,-74.4326 105.59113,-60.904 123.0119,-71.3393 121.26306,-72.6384 -1.12319,-0.8344 -16.2034,-9.8013 -33.51153,-19.9263 -23.949,-14.0098 -32.46941,-18.4077 -35.65427,-18.4035 -3.29664,0 -30.19657,15.0624 -126.72812,70.9396 -73.9989,42.8342 -122.90496,71.8561 -123.45642,73.2616 -0.50232,1.2802 -0.95209,65.8922 -0.9995,143.5823 l -0.0861,141.2545 2.759,3.0956 c 4.11203,4.6135 244.86294,142.9475 248.79452,142.9557 2.06124,0 47.39294,-25.5102 124.46233,-70.0524 z m -20.59811,-154.5101 c 52.8386,-30.5867 96.49492,-56.4425 97.01406,-57.4575 1.42344,-2.7829 2.56345,-78.4847 1.1819,-78.4847 -1.10693,0 -245.77326,141.7429 -255.27106,147.8866 -3.55051,2.2966 -4.59837,3.7745 -4.59837,6.4856 0,1.9311 0.90366,4.2685 2.00813,5.1941 1.10445,0.9256 13.9339,8.7404 28.50981,17.3662 23.10321,13.672 27.05211,15.6152 30.79356,15.1525 2.79684,-0.3458 37.7559,-19.9021 100.36197,-56.1428 z m -67.32802,-126.676 c 69.76229,-40.596 127.00211,-74.325 127.19961,-74.9533 0.19736,-0.6283 -14.03307,-9.3817 -31.62348,-19.452 -28.82756,-16.5033 -32.30405,-18.1882 -35.24152,-17.0794 -5.87802,2.2187 -193.22903,111.0189 -196.37186,114.0389 l -3.06559,2.9457 -0.38259,31.1817 c -0.26361,21.4787 0.0475,31.9855 0.99985,33.7648 1.67255,3.1253 5.85386,4.9637 9.19259,4.0418 1.34885,-0.3725 59.5307,-33.8921 129.29299,-74.4882 z m 195.17313,52.6244 c 9.65203,-5.7513 17.97772,-11.1313 18.50147,-11.9557 1.65534,-2.6054 1.20248,-70.0777 -0.48166,-71.7618 -3.7918,-3.7918 -16.78232,1.0311 -33.16951,12.3146 l -3.37211,2.3219 v 39.769 c 0,21.8729 0.21897,39.7689 0.4863,39.7689 0.26751,0 8.38347,-4.7055 18.03551,-10.4569 z m -39.82841,-143.0249 c 13.82614,-8.0653 16.5411,-11.152 14.24385,-16.194 -1.8235,-4.0021 -51.80279,-32.8602 -57.17428,-33.0125 -2.7005,-0.076 -8.94641,2.7793 -20.72552,9.4762 -9.27313,5.2722 -17.07516,9.9336 -17.33789,10.3587 -0.87669,1.4186 61.0797,36.7288 64.62745,36.8326 2.08757,0.061 8.42195,-2.8266 16.36639,-7.461 z"
         id="path2488" /></g><g
       id="g2530"
       style="display:inline"
       inkscape:label="in"
       transform="translate(-14.714769,1240.9444)"><path
         d="M 211,106 A 100,100 0 1 0 311,206 100,100 0 0 0 211,106 Z m 0,189.268 A 89.268,89.268 0 1 1 300.268,206 89.268,89.268 0 0 1 211,295.268 Z"
         id="path2512"
         style="display:inline;fill:#fff200;fill-opacity:1"
         transform="matrix(3.5431755,0,0,3.5431755,-494.3596,-400.0205)" /><path
         style="display:inline;opacity:1;fill:#fff200;fill-opacity:1"
         d="m 454.83935,259.11311 -0.29069,74.8721 c 0,0 -1.20333,4.24989 -4.65698,6.09882 L 261.2587,449.20846 c -7.49897,3.84815 -12.50997,-0.32401 -12.50997,-0.32401 l -51.15938,-30.02134 c -5.94491,-6.41359 0.47533,-10.50332 0.47533,-10.50332 z"
         id="path2514"
         sodipodi:nodetypes="cccccccc" /><path
         style="display:inline;opacity:1;fill:#fff200;fill-opacity:1"
         d="m 466.05495,330.92036 34.64618,-20.576 c 0,0 2.92298,-2.04289 3.09565,-8.59215 l -0.28144,-60.08428 c 0,0 -1.21558,-8.75226 -11.26255,-4.77533 l -22.75069,13.06404 c -3.83582,2.52844 -3.35876,6.09879 -3.35876,6.09879 z"
         id="path2516"
         sodipodi:nodetypes="cccccccc" /><path
         style="display:inline;opacity:1;fill:#fff200;fill-opacity:1"
         d="m 363.61286,148.92876 62.57895,36.15083 c 2.6164,1.02912 4.48444,-0.0206 4.48444,-0.0206 l 25.471,-14.83886 c 0,0 6.32733,-5.91555 -0.92497,-11.81112 l -48.67325,-27.98632 c -5.40222,-2.98478 -10.01868,-0.32065 -10.01868,-0.32065 z"
         id="path2518"
         sodipodi:nodetypes="cccccccc" /><path
         style="display:inline;opacity:1;fill:#fff200;fill-opacity:1"
         d="m 416.71435,193.23811 -61.75,-35.5 c 0,0 -3.02015,-1.57276 -7.25,0.25 L 155.20268,269.49395 c -5.30258,3.4362 -4.61333,9.24416 -4.61333,9.24416 l -0.003,58.83844 c 3.62614,8.165 11.47392,3.92293 11.47392,3.92293 z"
         id="path2520"
         sodipodi:nodetypes="cccccccc" /><path
         style="display:inline;opacity:1;fill:#fff200;fill-opacity:1"
         d="M 248.62673,618.35117 5.8828418,478.41019 c 0,0 -2.895211,-1.80207 -3.738961,-5.23957 L 2.0893444,191.77826 c 0,0 -0.026362,-4.03246 3.2236381,-5.93871 L 246.22714,46.425332 c 6.03086,-4.08455 11.71783,-0.217314 11.71783,-0.217314 L 322.51227,84.00752 78.030101,225.2521 c 0,0 -4.728777,2.87261 -5.524272,9.45754 l 0.07544,194.34707 c 0,0 6.04e-4,5.56432 4.688104,8.97057 l 170.289577,98.39599 c 0,0 5.80465,2.52749 12.10921,-1.59099 l 242.68598,-140.04712 0.10323,76.81538 c 0,0 -0.0971,4.38468 -3.94079,6.69088 L 256.78752,618.17793 c 0,0 -3.56213,2.3874 -8.16079,0.17324 z"
         id="path2522"
         sodipodi:nodetypes="ccccccccccccccccccc"
         inkscape:label="path674" /></g><g
       id="g2501"
       inkscape:label="full"
       style="display:inline"
       transform="translate(-1.3186295e-5,1.4253323e-5)"><path
         style="display:inline;opacity:1;fill:#000000"
         d="M 233.62347,614.88287 -9.1204229,474.94189 c 0,0 -2.8952111,-1.80207 -3.7389611,-5.23957 l -0.05454,-281.39236 c 0,0 -0.02636,-4.03246 3.2236382,-5.93871 L 231.22388,42.957031 c 6.03086,-4.08455 11.71783,-0.217314 11.71783,-0.217314 L 307.50901,80.539219 63.026837,221.7838 c 0,0 -4.728777,2.87261 -5.524272,9.45754 l 0.07544,194.34707 c 0,0 6.04e-4,5.56432 4.688104,8.97057 l 170.289581,98.39599 c 0,0 5.80465,2.52749 12.10921,-1.59099 l 242.68598,-140.04712 0.10323,76.81538 c 0,0 -0.0971,4.38468 -3.94079,6.69088 L 241.78426,614.70963 c 0,0 -3.56213,2.3874 -8.16079,0.17324 z"
         id="path674"
         sodipodi:nodetypes="ccccccccccccccccccc"
         inkscape:label="path674" /><path
         style="display:inline;opacity:1;fill:#000000"
         d="m 401.71109,189.76981 -61.75,-35.5 c 0,0 -3.02015,-1.57276 -7.25,0.25 L 140.19942,266.02565 c -5.30258,3.4362 -4.61333,9.24416 -4.61333,9.24416 l -0.003,58.83844 c 3.62614,8.165 11.47392,3.92293 11.47392,3.92293 z"
         id="path676"
         sodipodi:nodetypes="cccccccc" /><path
         style="display:inline;opacity:1;fill:#000000"
         d="m 348.6096,145.46046 62.57895,36.15083 c 2.6164,1.02912 4.48444,-0.0206 4.48444,-0.0206 l 25.471,-14.83886 c 0,0 6.32733,-5.91555 -0.92497,-11.81112 l -48.67325,-27.98632 c -5.40222,-2.98478 -10.01868,-0.32065 -10.01868,-0.32065 z"
         id="path678"
         sodipodi:nodetypes="cccccccc" /><path
         style="display:inline;opacity:1;fill:#000000"
         d="m 451.05169,327.45206 34.64618,-20.576 c 0,0 2.92298,-2.04289 3.09565,-8.59215 l -0.28144,-60.08428 c 0,0 -1.21558,-8.75226 -11.26255,-4.77533 l -22.75069,13.06404 c -3.83582,2.52844 -3.35876,6.09879 -3.35876,6.09879 z"
         id="path680"
         sodipodi:nodetypes="cccccccc" /><path
         style="display:inline;opacity:1;fill:#000000"
         d="m 439.83609,255.64481 -0.29069,74.8721 c 0,0 -1.20333,4.24989 -4.65698,6.09882 L 246.25544,445.74016 c -7.49897,3.84815 -12.50997,-0.32401 -12.50997,-0.32401 l -51.15938,-30.02134 c -5.94491,-6.41359 0.47533,-10.50332 0.47533,-10.50332 z"
         id="path682"
         sodipodi:nodetypes="cccccccc" /><path
         d="M 238.24717,-27.912198 A 354.31755,354.31755 0 1 0 592.56472,326.40535 354.31755,354.31755 0 0 0 238.24717,-27.912198 Z m 0,670.609738 A 316.29219,316.29219 0 1 1 554.53936,326.40535 316.29219,316.29219 0 0 1 238.24717,642.69754 Z"
         id="path2345"
         style="display:inline;stroke-width:3.54318" /><path
         style="display:inline;fill:#fff200;fill-opacity:1;stroke:#fff200;stroke-width:0.613115;stroke-opacity:1"
         d="m 217.79132,641.79917 c -18.71863,-1.61275 -33.31857,-3.74606 -48.06938,-7.02385 C 96.391217,618.48033 31.161491,576.42836 -14.234064,516.18343 -34.700968,489.02155 -51.331429,457.06137 -62.154768,424.0901 -76.908232,379.14626 -81.268109,329.65466 -74.620155,282.58669 -61.86444,192.27501 -10.813943,111.91919 65.560552,61.935894 107.04484,34.786525 153.32307,18.27313 205.22244,12.100564 c 13.15691,-1.564808 52.28724,-1.580752 65.80984,-0.02834 58.82908,6.760272 111.68196,27.688818 157.67053,62.433941 47.39157,35.805135 83.89627,84.457355 104.84341,139.731815 24.32582,64.19001 27.21078,133.96127 8.25132,199.55374 -21.08828,72.95717 -67.35088,135.53487 -130.87506,177.02974 -42.25463,27.6013 -88.25164,43.95425 -140.40329,49.91653 -7.83212,0.8954 -45.78215,1.65806 -52.72787,1.05966 z m 144.66102,-96.47461 c 66.98781,-38.76953 122.47255,-71.21007 123.29946,-72.09012 l 1.50347,-1.6001 0.16618,-40.47444 0.16617,-40.47443 -2.0055,1.2152 c -4.37271,2.64948 -241.25986,139.208 -243.25186,140.22758 -1.23888,0.63409 -3.47104,1.09098 -5.33,1.09098 -3.0645,0 -4.33561,-0.65658 -30.36353,-15.68429 C 58.203042,431.83378 61.836746,433.96993 59.914254,431.28136 l -1.839369,-2.57224 -0.174678,-98.50548 c -0.134287,-75.69704 -0.0031,-99.13246 0.568042,-101.21315 0.408563,-1.4892 1.490897,-3.55848 2.405178,-4.59837 1.04428,-1.18774 47.271243,-28.21962 124.332863,-72.70546 67.4688,-38.94811 122.67495,-70.952696 122.68033,-71.121316 0.007,-0.168655 -14.97346,-9.065108 -33.28636,-19.769998 -37.17596,-21.731394 -36.42253,-21.397662 -42.18282,-18.685538 -1.80588,0.850256 -57.36015,32.847008 -123.4539,71.103952 -106.3737916,61.57213 -120.293582,69.79737 -121.242515,71.64251 -1.01147,1.96678 -1.072059,10.07545 -1.072944,143.59119 -0.0012,151.29299 -0.159443,143.17618 2.848571,145.81836 0.8496534,0.7463 161.180338,93.36176 237.456538,137.16742 6.64576,3.81667 8.02041,4.38135 10.6661,4.38135 2.91691,0 7.85837,-2.79033 124.83315,-70.49003 z m -118.85437,-98.325 c 2.03385,-0.61814 170.28009,-97.35721 190.1269,-109.32014 6.26171,-3.77433 5.8045,-0.52964 6.2299,-44.20997 0.20444,-20.99151 0.22995,-38.16638 0.057,-38.16638 -1.15004,0 -257.20013,149.40412 -258.5475,150.86136 -1.98411,2.14589 -2.20924,4.92643 -0.60992,7.53265 0.7626,1.2427 8.72748,6.23967 27.74023,17.40355 14.66878,8.61314 27.36026,15.87512 28.20329,16.13771 2.30838,0.71894 3.82397,0.66573 6.80009,-0.23881 z m 30.27927,-182.34988 c 70.13259,-40.83875 127.59372,-74.49211 127.69144,-74.78524 0.0978,-0.29302 -13.90714,-8.6226 -31.12187,-18.50994 l -31.2995,-17.97697 -3.19849,0.30082 c -2.90367,0.27282 -12.09899,5.45546 -99.76406,56.22736 -53.11107,30.75969 -97.30729,56.71578 -98.21381,57.68024 -0.90652,0.96445 -1.93961,2.80286 -2.29577,4.08538 -0.41412,1.4914 -0.6473,13.1601 -0.64691,32.3745 6e-4,28.66705 0.0549,30.12496 1.18586,31.84064 1.73666,2.63445 3.57358,3.4716 7.08373,3.22822 2.80613,-0.19452 13.85651,-6.4962 130.57938,-74.46487 z m 194.93017,52.70959 c 9.94052,-5.95289 17.64955,-10.9735 18.39344,-11.97901 1.26254,-1.70657 1.28065,-2.21126 1.28065,-35.70001 v -33.96899 l -1.59252,-1.59252 c -2.07251,-2.07251 -5.63039,-2.57093 -8.8247,-1.23628 -1.32161,0.5522 -7.48188,3.93629 -13.68956,7.52024 -8.10026,4.67661 -11.61254,7.05064 -12.44094,8.40913 -1.09785,1.80032 -1.15436,3.77366 -1.15656,40.36584 -10e-4,21.16013 0.2048,38.46319 0.45757,38.45128 0.25298,-0.0106 8.16057,-4.63327 17.57262,-10.26968 z M 428.18987,174.75234 c 13.82997,-8.02419 15.84079,-9.74579 15.84079,-13.56239 0,-4.23452 -1.43892,-5.31962 -25.45729,-19.19675 -12.46971,-7.20469 -24.41273,-13.93644 -26.54002,-14.9595 -6.41084,-3.08309 -6.99699,-2.89796 -26.72089,8.43903 -9.31022,5.35137 -16.92373,9.87816 -16.91888,10.05954 0.004,0.18141 1.31541,1.05696 2.91232,1.9457 1.59691,0.88873 15.85394,9.09682 31.68233,18.24016 18.43231,10.64752 29.37944,16.62426 30.44938,16.62426 1.02412,0 6.73214,-2.93676 14.75226,-7.59005 z"
         id="path2288" /></g></g></svg>
