<?xml version="1.0" encoding="UTF-8" standalone="no"?>
<svg
   width="300"
   height="300"
   viewBox="0 0 300 300"
   version="1.1"
   id="svg6437"
   xml:space="preserve"
   xmlns="http://www.w3.org/2000/svg"
   xmlns:svg="http://www.w3.org/2000/svg"
   xmlns:rdf="http://www.w3.org/1999/02/22-rdf-syntax-ns#"
   xmlns:cc="http://creativecommons.org/ns#"
   xmlns:dc="http://purl.org/dc/elements/1.1/"><defs
     id="defs6431"><style
       id="style6429">.a{fill:#fff;}</style><style
       id="style2">.a{fill:#fff;}.b{fill:#fff200;}</style></defs><title
     id="title6433">white_2</title><path
     style="display:inline;fill:#ffffff;fill-opacity:1;stroke:#fff200;stroke-width:1.22623;stroke-opacity:1"
     d="m 584.01955,3179.8671 c -2.02326,-0.2813 -8.9208,-1.0992 -15.32785,-1.8179 -52.90641,-5.9339 -106.71272,-25.9331 -153.27869,-56.972 -22.77787,-15.1826 -38.67841,-28.4045 -57.66809,-47.9531 -17.35603,-17.8668 -27.64857,-30.6128 -41.45834,-51.3409 -30.06371,-45.1248 -49.65038,-98.8574 -56.76696,-155.7301 -2.29048,-18.3047 -1.90693,-64.1141 0.69305,-82.7705 10.43511,-74.8778 39.74816,-138.5433 89.18928,-193.7115 70.1401,-78.265 178.39041,-122.4932 282.52112,-115.4308 53.58053,3.634 97.21272,15.7948 144.00142,40.1349 29.49814,15.3454 56.05165,34.7498 81.91272,59.8592 56.06891,54.4392 91.16825,123.0816 103.49644,202.4039 3.60855,23.2182 3.90384,74.3761 0.55915,96.8721 -6.89892,46.4015 -20.53954,87.5133 -41.49916,125.0754 -35.28709,63.2386 -88.35854,113.8289 -152.43963,145.313 -35.88879,17.6327 -66.85735,27.2582 -108.52134,33.73 -12.25712,1.9039 -66.44907,3.5843 -75.41312,2.3383 z m 151.00273,-133.1093 c 66.67116,-38.5326 122.1935,-70.974 123.38301,-72.0919 1.99488,-1.8749 2.13763,-5.1841 1.83933,-42.6311 l -0.32349,-40.5985 -98.71149,56.9685 c -151.11725,87.213 -147.23655,85.0286 -151.06066,85.0286 -5.0637,0 -175.6575,-98.6848 -177.4698,-102.6624 -0.91453,-2.0072 -1.32532,-33.5057 -1.32532,-101.6234 0,-83.4146 0.27282,-99.2279 1.76007,-102.0259 1.33287,-2.5076 31.68758,-20.5732 125.06534,-74.4326 105.59113,-60.904 123.0119,-71.3393 121.26306,-72.6384 -1.12319,-0.8344 -16.2034,-9.8013 -33.51153,-19.9263 -23.949,-14.0098 -32.46941,-18.4077 -35.65427,-18.4035 -3.29664,0 -30.19657,15.0624 -126.72812,70.9396 -73.9989,42.8342 -122.90496,71.8561 -123.45642,73.2616 -0.50232,1.2802 -0.95209,65.8922 -0.9995,143.5823 l -0.0861,141.2545 2.759,3.0956 c 4.11203,4.6135 244.86294,142.9475 248.79452,142.9557 2.06124,0 47.39294,-25.5102 124.46233,-70.0524 z m -20.59811,-154.5101 c 52.8386,-30.5867 96.49492,-56.4425 97.01406,-57.4575 1.42344,-2.7829 2.56345,-78.4847 1.1819,-78.4847 -1.10693,0 -245.77326,141.7429 -255.27106,147.8866 -3.55051,2.2966 -4.59837,3.7745 -4.59837,6.4856 0,1.9311 0.90366,4.2685 2.00813,5.1941 1.10445,0.9256 13.9339,8.7404 28.50981,17.3662 23.10321,13.672 27.05211,15.6152 30.79356,15.1525 2.79684,-0.3458 37.7559,-19.9021 100.36197,-56.1428 z m -67.32802,-126.676 c 69.76229,-40.596 127.00211,-74.325 127.19961,-74.9533 0.19736,-0.6283 -14.03307,-9.3817 -31.62348,-19.452 -28.82756,-16.5033 -32.30405,-18.1882 -35.24152,-17.0794 -5.87802,2.2187 -193.22903,111.0189 -196.37186,114.0389 l -3.06559,2.9457 -0.38259,31.1817 c -0.26361,21.4787 0.0475,31.9855 0.99985,33.7648 1.67255,3.1253 5.85386,4.9637 9.19259,4.0418 1.34885,-0.3725 59.5307,-33.8921 129.29299,-74.4882 z m 195.17313,52.6244 c 9.65203,-5.7513 17.97772,-11.1313 18.50147,-11.9557 1.65534,-2.6054 1.20248,-70.0777 -0.48166,-71.7618 -3.7918,-3.7918 -16.78232,1.0311 -33.16951,12.3146 l -3.37211,2.3219 v 39.769 c 0,21.8729 0.21897,39.7689 0.4863,39.7689 0.26751,0 8.38347,-4.7055 18.03551,-10.4569 z m -39.82841,-143.0249 c 13.82614,-8.0653 16.5411,-11.152 14.24385,-16.194 -1.8235,-4.0021 -51.80279,-32.8602 -57.17428,-33.0125 -2.7005,-0.076 -8.94641,2.7793 -20.72552,9.4762 -9.27313,5.2722 -17.07516,9.9336 -17.33789,10.3587 -0.87669,1.4186 61.0797,36.7288 64.62745,36.8326 2.08757,0.061 8.42195,-2.8266 16.36639,-7.461 z"
     id="path3427"
     transform="matrix(0.2822327,0,0,0.2822327,-22.722649,-647.73131)" /><metadata
     id="metadata6791"><rdf:RDF><cc:Work
         rdf:about=""><dc:title>white_2</dc:title></cc:Work></rdf:RDF></metadata></svg>
