<?xml version="1.0" encoding="UTF-8" standalone="no"?>
<svg
   width="300"
   height="300"
   viewBox="0 0 300 300"
   version="1.1"
   id="svg16"
   sodipodi:docname="yellow_1.svg"
   xml:space="preserve"
   inkscape:version="1.2.2 (732a01da63, 2022-12-09)"
   xmlns:inkscape="http://www.inkscape.org/namespaces/inkscape"
   xmlns:sodipodi="http://sodipodi.sourceforge.net/DTD/sodipodi-0.dtd"
   xmlns="http://www.w3.org/2000/svg"
   xmlns:svg="http://www.w3.org/2000/svg"
   xmlns:rdf="http://www.w3.org/1999/02/22-rdf-syntax-ns#"
   xmlns:cc="http://creativecommons.org/ns#"
   xmlns:dc="http://purl.org/dc/elements/1.1/"><sodipodi:namedview
     id="namedview18"
     pagecolor="#ffffff"
     bordercolor="#000000"
     borderopacity="0.25"
     inkscape:showpageshadow="2"
     inkscape:pageopacity="0.0"
     inkscape:pagecheckerboard="0"
     inkscape:deskcolor="#d1d1d1"
     showgrid="false"
     inkscape:zoom="2.68"
     inkscape:cx="130.78358"
     inkscape:cy="87.5"
     inkscape:window-width="1920"
     inkscape:window-height="991"
     inkscape:window-x="-9"
     inkscape:window-y="-9"
     inkscape:window-maximized="1"
     inkscape:current-layer="svg16" /><defs
     id="defs4"><style
       id="style2">.a{fill:#fff200;}</style><style
       id="style2-7">.a{fill:#fff;}.b{fill:#fff200;}</style></defs><title
     id="title6">yellow_1</title><path
     d="M 211,106 A 100,100 0 1 0 311,206 100,100 0 0 0 211,106 Z m 0,189.268 A 89.268,89.268 0 1 1 300.268,206 89.268,89.268 0 0 1 211,295.268 Z"
     id="path2512"
     style="display:inline;fill:#fff200;fill-opacity:1"
     transform="translate(-61.167384,-55.983251)" /><path
     style="display:inline;opacity:1;fill:#fff200;fill-opacity:1"
     d="m 454.83935,259.11311 -0.29069,74.8721 c 0,0 -1.20333,4.24989 -4.65698,6.09882 L 261.2587,449.20846 c -7.49897,3.84815 -12.50997,-0.32401 -12.50997,-0.32401 l -51.15938,-30.02134 c -5.94491,-6.41359 0.47533,-10.50332 0.47533,-10.50332 z"
     id="path2514"
     sodipodi:nodetypes="cccccccc"
     transform="matrix(0.2822327,0,0,0.2822327,78.357061,56.915615)" /><path
     style="display:inline;opacity:1;fill:#fff200;fill-opacity:1"
     d="m 466.05495,330.92036 34.64618,-20.576 c 0,0 2.92298,-2.04289 3.09565,-8.59215 l -0.28144,-60.08428 c 0,0 -1.21558,-8.75226 -11.26255,-4.77533 l -22.75069,13.06404 c -3.83582,2.52844 -3.35876,6.09879 -3.35876,6.09879 z"
     id="path2516"
     sodipodi:nodetypes="cccccccc"
     transform="matrix(0.2822327,0,0,0.2822327,78.357061,56.915615)" /><path
     style="display:inline;opacity:1;fill:#fff200;fill-opacity:1"
     d="m 363.61286,148.92876 62.57895,36.15083 c 2.6164,1.02912 4.48444,-0.0206 4.48444,-0.0206 l 25.471,-14.83886 c 0,0 6.32733,-5.91555 -0.92497,-11.81112 l -48.67325,-27.98632 c -5.40222,-2.98478 -10.01868,-0.32065 -10.01868,-0.32065 z"
     id="path2518"
     sodipodi:nodetypes="cccccccc"
     transform="matrix(0.2822327,0,0,0.2822327,78.357061,56.915615)" /><path
     style="display:inline;opacity:1;fill:#fff200;fill-opacity:1"
     d="m 416.71435,193.23811 -61.75,-35.5 c 0,0 -3.02015,-1.57276 -7.25,0.25 L 155.20268,269.49395 c -5.30258,3.4362 -4.61333,9.24416 -4.61333,9.24416 l -0.003,58.83844 c 3.62614,8.165 11.47392,3.92293 11.47392,3.92293 z"
     id="path2520"
     sodipodi:nodetypes="cccccccc"
     transform="matrix(0.2822327,0,0,0.2822327,78.357061,56.915615)" /><path
     style="display:inline;opacity:1;fill:#fff200;fill-opacity:1"
     d="M 248.62673,618.35117 5.8828418,478.41019 c 0,0 -2.895211,-1.80207 -3.738961,-5.23957 L 2.0893444,191.77826 c 0,0 -0.026362,-4.03246 3.2236381,-5.93871 L 246.22714,46.425332 c 6.03086,-4.08455 11.71783,-0.217314 11.71783,-0.217314 L 322.51227,84.00752 78.030101,225.2521 c 0,0 -4.728777,2.87261 -5.524272,9.45754 l 0.07544,194.34707 c 0,0 6.04e-4,5.56432 4.688104,8.97057 l 170.289577,98.39599 c 0,0 5.80465,2.52749 12.10921,-1.59099 l 242.68598,-140.04712 0.10323,76.81538 c 0,0 -0.0971,4.38468 -3.94079,6.69088 L 256.78752,618.17793 c 0,0 -3.56213,2.3874 -8.16079,0.17324 z"
     id="path2522"
     sodipodi:nodetypes="ccccccccccccccccccc"
     inkscape:label="path674"
     transform="matrix(0.2822327,0,0,0.2822327,78.357061,56.915615)" /><metadata
     id="metadata491"><rdf:RDF><cc:Work
         rdf:about=""><dc:title>yellow_1</dc:title></cc:Work></rdf:RDF></metadata></svg>
