<?xml version="1.0" encoding="UTF-8" standalone="no"?>
<svg
   width="300"
   height="300"
   viewBox="0 0 300 300"
   version="1.1"
   id="svg10"
   sodipodi:docname="yellow_2.svg"
   xml:space="preserve"
   inkscape:version="1.2.2 (732a01da63, 2022-12-09)"
   xmlns:inkscape="http://www.inkscape.org/namespaces/inkscape"
   xmlns:sodipodi="http://sodipodi.sourceforge.net/DTD/sodipodi-0.dtd"
   xmlns="http://www.w3.org/2000/svg"
   xmlns:svg="http://www.w3.org/2000/svg"
   xmlns:rdf="http://www.w3.org/1999/02/22-rdf-syntax-ns#"
   xmlns:cc="http://creativecommons.org/ns#"
   xmlns:dc="http://purl.org/dc/elements/1.1/"><sodipodi:namedview
     id="namedview12"
     pagecolor="#ffffff"
     bordercolor="#000000"
     borderopacity="0.25"
     inkscape:showpageshadow="2"
     inkscape:pageopacity="0.0"
     inkscape:pagecheckerboard="0"
     inkscape:deskcolor="#d1d1d1"
     showgrid="false"
     inkscape:zoom="1.8950462"
     inkscape:cx="129.0206"
     inkscape:cy="171.76362"
     inkscape:window-width="1920"
     inkscape:window-height="991"
     inkscape:window-x="-9"
     inkscape:window-y="-9"
     inkscape:window-maximized="1"
     inkscape:current-layer="svg10" /><defs
     id="defs4"><style
       id="style2">.a{fill:#fff200;}</style><style
       id="style2-6">.a{fill:#fff;}.b{fill:#fff200;}</style></defs><title
     id="title6">yellow_2</title><path
     style="display:inline;fill:#fff200;fill-opacity:1;stroke:#fff200;stroke-width:0.346082;stroke-opacity:1"
     d="m 142.36783,249.59508 c -0.57103,-0.0794 -2.51774,-0.31023 -4.32602,-0.51307 -14.93192,-1.67474 -30.11782,-7.31917 -43.260258,-16.07936 -6.42866,-4.28503 -10.916312,-8.01668 -16.275821,-13.53394 -4.898439,-5.04259 -7.80333,-8.63993 -11.700899,-14.49008 C 58.31987,192.24294 52.791871,177.07784 50.783339,161.02651 50.136891,155.86032 50.245141,142.93141 50.978941,137.66596 53.92407,116.533 62.197171,98.564514 76.151072,82.994244 95.946902,60.905302 126.49868,48.422658 155.88777,50.415898 c 15.12218,1.025634 27.43661,4.457809 40.64191,11.327381 8.32534,4.330974 15.81961,9.80753 23.11845,16.894224 15.82448,15.364522 25.73066,34.737657 29.21008,57.124997 1.01845,6.55294 1.10179,20.99137 0.15781,27.34048 -1.9471,13.09602 -5.79693,24.69911 -11.71242,35.30036 -9.95917,17.84801 -24.93767,32.12624 -43.02345,41.01208 -10.12899,4.97653 -18.86933,7.69316 -30.62827,9.51971 -3.45936,0.53735 -18.7541,1.01161 -21.28405,0.65995 z m 42.61791,-37.5678 c 18.81678,-10.87516 34.487,-20.03118 34.82272,-20.34669 0.56302,-0.52916 0.60331,-1.46312 0.51912,-12.03189 l -0.0913,-11.45823 -27.85961,16.07838 c -42.65023,24.61436 -41.55497,23.99785 -42.63426,23.99785 -1.42914,0 -49.57629,-27.85208 -50.08778,-28.97469 -0.258111,-0.56649 -0.374049,-9.4564 -0.374049,-28.68144 0,-23.54233 0.077,-28.00536 0.496749,-28.79505 0.37618,-0.70773 8.94327,-5.80643 35.29753,-21.00731 29.80127,-17.189102 34.71798,-20.134285 34.2244,-20.500934 -0.317,-0.235495 -4.57313,-2.766247 -9.45805,-5.623853 -6.75919,-3.954024 -9.16393,-5.195255 -10.0628,-5.19407 -0.93042,0 -8.52246,4.251102 -35.76682,20.021475 -20.88491,12.089212 -34.687799,20.280142 -34.843439,20.676822 -0.141771,0.36131 -0.268711,18.59693 -0.282092,40.52362 l -0.0243,39.86664 0.77868,0.87368 c 1.16055,1.30208 69.108331,40.34445 70.217951,40.34677 0.58175,0 13.37584,-7.19981 35.12734,-19.77108 z m -5.81346,-43.6078 c 14.91278,-8.63257 27.23402,-15.92992 27.38054,-16.21639 0.40174,-0.78542 0.72349,-22.15095 0.33357,-22.15095 -0.31241,0 -69.36525,40.00449 -72.04584,41.73844 -1.00207,0.64817 -1.29781,1.06529 -1.29781,1.83045 0,0.54502 0.25504,1.20471 0.56676,1.46594 0.31171,0.26124 3.9326,2.46683 8.0464,4.90131 6.52048,3.85869 7.63499,4.40712 8.69095,4.27653 0.78936,-0.0976 10.65595,-5.61702 28.32543,-15.84533 z m -19.00217,-35.75211 c 19.6892,-11.45752 35.84415,-20.97695 35.89989,-21.15427 0.0557,-0.17733 -3.96059,-2.64783 -8.92518,-5.48999 -8.13608,-4.65777 -9.11726,-5.13331 -9.94631,-4.82037 -1.65897,0.62619 -54.53555,31.33316 -55.42256,32.18551 l -0.86521,0.83137 -0.10798,8.8005 c -0.0744,6.06199 0.0134,9.02735 0.28219,9.52953 0.47205,0.88206 1.65215,1.40092 2.59445,1.14072 0.38069,-0.10513 16.80151,-9.56545 36.49071,-21.023 z m 55.08424,14.85233 c 2.72412,-1.62321 5.0739,-3.14162 5.22172,-3.37429 0.46719,-0.73533 0.33938,-19.77822 -0.13594,-20.25353 -1.07017,-1.07017 -4.73652,0.29101 -9.36152,3.47558 l -0.95172,0.65532 v 11.22411 c 0,6.17325 0.0618,11.22408 0.13725,11.22408 0.0755,0 2.36609,-1.32804 5.09021,-2.95127 z m -11.24088,-40.36631 c 3.90219,-2.27629 4.66844,-3.14746 4.02008,-4.57047 -0.51465,-1.12953 -14.62044,-9.274228 -16.13645,-9.317212 -0.76217,-0.02145 -2.52497,0.78441 -5.84942,2.674494 -2.61718,1.487987 -4.81917,2.803587 -4.89332,2.923564 -0.24743,0.400375 17.23869,10.366064 18.23998,10.395364 0.58918,0.0172 2.37695,-0.79776 4.61913,-2.10574 z"
     id="path2488" /><metadata
     id="metadata475"><rdf:RDF><cc:Work
         rdf:about=""><dc:title>yellow_2</dc:title></cc:Work></rdf:RDF></metadata></svg>
